<?xml version="1.0" encoding="UTF-8"?>
<!DOCTYPE svg PUBLIC "-//W3C//DTD SVG 1.1//EN" "http://www.w3.org/Graphics/SVG/1.1/DTD/svg11.dtd">
<!-- Creator: CorelDRAW X6 -->
<svg xmlns="http://www.w3.org/2000/svg" xml:space="preserve" width="11in" height="8.5in" version="1.1" style="shape-rendering:geometricPrecision; text-rendering:geometricPrecision; image-rendering:optimizeQuality; fill-rule:evenodd; clip-rule:evenodd"
viewBox="0 0 11000 8500"
 xmlns:xlink="http://www.w3.org/1999/xlink">
 <defs>
  <style type="text/css">
   <![CDATA[
    .fil1 {fill:#4D4D4D}
    .fil2 {fill:#99CC33}
    .fil0 {fill:#FEFEFE}
   ]]>
  </style>
 </defs>
 <g id="Layer_x0020_1">
  <metadata id="CorelCorpID_0Corel-Layer"/>
  <rect class="fil0" y="2548" width="11000" height="3404"/>
  <g id="_698144544">
   <g>
    <path class="fil1" d="M4525 5101c0,240 182,427 418,427 235,0 419,-187 419,-427 0,-234 -183,-415 -419,-415 -235,0 -418,181 -418,415zm120 0c0,-174 133,-308 298,-308 165,0 299,134 299,308 0,180 -134,318 -299,318 -165,0 -298,-138 -298,-318zm804 249c0,117 98,178 198,178 140,0 186,-115 186,-115l2 0c0,0 -2,15 -2,35 0,42 21,67 73,67l105 0 0 -96 -47 0c-16,0 -25,-8 -25,-25l0 -248c0,-129 -51,-228 -240,-228 -57,0 -202,14 -202,110l0 58 105 0 0 -33c0,-38 68,-45 96,-45 91,0 129,37 129,140l0 6 -25 0c-98,0 -352,12 -352,200zm113 -6c0,-107 152,-112 237,-112l29 0 0 20c0,87 -61,186 -156,186 -74,0 -110,-46 -110,-93zm565 170l112 0 0 -275 44 0c18,0 45,2 58,24l106 196c25,45 43,54 97,54l81 0 0 -96 -36 0c-29,0 -40,-5 -50,-23l-87 -158c-20,-37 -39,-44 -39,-44l0 -2c0,0 17,-8 44,-44l158 -217 -128 0 -135 189c-15,20 -40,25 -61,25l-52 0 0 -378c0,-52 -22,-67 -74,-67l-111 0 0 96 47 0c16,0 25,8 25,25l0 693z"/>
    <path class="fil2" d="M4746 5101c0,113 78,217 197,217 118,0 198,-104 198,-217 0,-113 -83,-207 -198,-207 -115,0 -197,95 -197,207z"/>
   </g>
   <path class="fil2" d="M5767 4248c18,0 33,15 33,33 0,18 -15,33 -33,33 -18,0 -33,-15 -33,-33 0,-18 15,-33 33,-33zm-1041 -900c24,0 44,20 44,44 0,24 -20,44 -44,44 -24,0 -44,-20 -44,-44 0,-24 20,-44 44,-44zm-89 -110c35,0 64,29 64,64 0,35 -29,64 -64,64 -35,0 -64,-29 -64,-64 0,-35 29,-64 64,-64zm296 257c11,0 20,9 20,20 0,11 -9,20 -20,20 -11,0 -20,-9 -20,-20 0,-11 9,-20 20,-20zm-182 -40c20,0 36,16 36,36 0,20 -16,36 -36,36 -20,0 -36,-16 -36,-36 0,-20 16,-36 36,-36zm24 97c16,0 28,13 28,28 0,16 -13,28 -28,28 -16,0 -28,-13 -28,-28 0,-16 13,-28 28,-28zm19 69c13,0 23,10 23,23 0,13 -10,23 -23,23 -13,0 -23,-10 -23,-23 0,-13 10,-23 23,-23zm26 59c13,0 23,10 23,23 0,13 -10,23 -23,23 -13,0 -23,-10 -23,-23 0,-13 10,-23 23,-23zm-197 -286c23,0 41,18 41,41 0,23 -18,41 -41,41 -23,0 -41,-18 -41,-41 0,-23 18,-41 41,-41zm37 108c13,0 24,11 24,24 0,13 -11,24 -24,24 -13,0 -24,-11 -24,-24 0,-13 11,-24 24,-24zm-72 -18c17,0 30,13 30,30 0,17 -13,30 -30,30 -17,0 -30,-13 -30,-30 0,-17 13,-30 30,-30zm-76 -8c17,0 30,13 30,30 0,17 -13,30 -30,30 -17,0 -30,-13 -30,-30 0,-17 13,-30 30,-30zm-74 45c35,0 64,29 64,64 0,35 -29,64 -64,64 -35,0 -64,-29 -64,-64 0,-35 29,-64 64,-64zm102 52c19,0 34,15 34,34 0,19 -15,34 -34,34 -19,0 -34,-15 -34,-34 0,-19 15,-34 34,-34zm74 13c17,0 30,13 30,30 0,17 -13,30 -30,30 -17,0 -30,-13 -30,-30 0,-17 13,-30 30,-30zm57 47c15,0 27,12 27,27 0,15 -12,27 -27,27 -15,0 -27,-12 -27,-27 0,-15 12,-27 27,-27zm42 51c10,0 19,8 19,19 0,10 -8,19 -19,19 -10,0 -19,-8 -19,-19 0,-10 8,-19 19,-19zm-56 25c15,0 27,12 27,27 0,15 -12,27 -27,27 -15,0 -27,-12 -27,-27 0,-15 12,-27 27,-27zm-59 43c19,0 34,15 34,34 0,19 -15,34 -34,34 -19,0 -34,-15 -34,-34 0,-19 15,-34 34,-34zm-41 67c22,0 39,18 39,39 0,22 -18,39 -39,39 -22,0 -39,-18 -39,-39 0,-22 18,-39 39,-39zm0 97c35,0 64,29 64,64 0,35 -29,64 -64,64 -35,0 -64,-29 -64,-64 0,-35 29,-64 64,-64zm97 -48c22,0 39,18 39,39 0,22 -18,39 -39,39 -22,0 -39,-18 -39,-39 0,-22 18,-39 39,-39zm43 -65c19,0 34,15 34,34 0,19 -15,34 -34,34 -19,0 -34,-15 -34,-34 0,-19 15,-34 34,-34zm43 -37c9,0 16,7 16,16 0,9 -7,16 -16,16 -9,0 -16,-7 -16,-16 0,-9 7,-16 16,-16zm2 110c19,0 34,15 34,34 0,19 -15,34 -34,34 -19,0 -34,-15 -34,-34 0,-19 15,-34 34,-34zm72 6c11,0 20,9 20,20 0,11 -9,20 -20,20 -11,0 -20,-9 -20,-20 0,-11 9,-20 20,-20zm59 -6c8,0 15,7 15,15 0,8 -7,15 -15,15 -8,0 -15,-7 -15,-15 0,-8 7,-15 15,-15zm-209 123c19,0 34,15 34,34 0,19 -15,34 -34,34 -19,0 -34,-15 -34,-34 0,-19 15,-34 34,-34zm62 -9c11,0 20,9 20,20 0,11 -9,20 -20,20 -11,0 -20,-9 -20,-20 0,-11 9,-20 20,-20zm53 -5c8,0 15,7 15,15 0,8 -7,15 -15,15 -8,0 -15,-7 -15,-15 0,-8 7,-15 15,-15zm-22 39c11,0 20,9 20,20 0,11 -9,20 -20,20 -11,0 -20,-9 -20,-20 0,-11 9,-20 20,-20zm-44 43c19,0 34,15 34,34 0,19 -15,34 -34,34 -19,0 -34,-15 -34,-34 0,-19 15,-34 34,-34zm37 66c35,0 64,29 64,64 0,35 -29,64 -64,64 -35,0 -64,-29 -64,-64 0,-35 29,-64 64,-64zm74 -60c19,0 34,15 34,34 0,19 -15,34 -34,34 -19,0 -34,-15 -34,-34 0,-19 15,-34 34,-34zm40 -45c13,0 23,11 23,23 0,13 -11,23 -23,23 -13,0 -23,-11 -23,-23 0,-13 11,-23 23,-23zm40 -40c11,0 21,9 21,21 0,11 -9,21 -21,21 -11,0 -21,-9 -21,-21 0,-11 9,-21 21,-21zm28 -31c8,0 15,7 15,15 0,8 -7,15 -15,15 -8,0 -15,-7 -15,-15 0,-8 7,-15 15,-15zm29 -22c6,0 11,5 11,11 0,6 -5,11 -11,11 -6,0 -11,-5 -11,-11 0,-6 5,-11 11,-11zm62 -536c12,0 22,10 22,22 0,12 -10,22 -22,22 -12,0 -22,-10 -22,-22 0,-12 10,-22 22,-22zm236 32c17,0 32,14 32,32 0,17 -14,32 -32,32 -17,0 -32,-14 -32,-32 0,-17 14,-32 32,-32zm50 -82c20,0 36,16 36,36 0,20 -16,36 -36,36 -20,0 -36,-16 -36,-36 0,-20 16,-36 36,-36zm53 -85c20,0 37,17 37,37 0,20 -17,37 -37,37 -20,0 -37,-17 -37,-37 0,-20 17,-37 37,-37zm43 -95c21,0 38,17 38,38 0,21 -17,38 -38,38 -21,0 -38,-17 -38,-38 0,-21 17,-38 38,-38zm-52 -197c31,0 57,25 57,57 0,31 -26,57 -57,57 -31,0 -57,-25 -57,-57 0,-31 26,-57 57,-57zm70 105c21,0 38,17 38,38 0,21 -17,38 -38,38 -21,0 -38,-17 -38,-38 0,-21 17,-38 38,-38zm-115 18c16,0 30,13 30,30 0,16 -13,30 -30,30 -16,0 -30,-13 -30,-30 0,-16 13,-30 30,-30zm-9 73c16,0 30,13 30,30 0,16 -13,30 -30,30 -16,0 -30,-13 -30,-30 0,-16 13,-30 30,-30zm-32 77c14,0 24,11 24,24 0,13 -11,24 -24,24 -14,0 -24,-11 -24,-24 0,-14 11,-24 24,-24zm-28 -64c14,0 24,11 24,24 0,14 -11,24 -24,24 -14,0 -24,-11 -24,-24 0,-14 11,-24 24,-24zm-31 -74c16,0 29,13 29,29 0,16 -13,29 -29,29 -16,0 -29,-13 -29,-29 0,-16 13,-29 29,-29zm-88 -96c31,0 57,25 57,57 0,31 -26,57 -57,57 -31,0 -57,-25 -57,-57 0,-31 26,-57 57,-57zm5 130c17,0 31,14 31,31 0,17 -14,31 -31,31 -17,0 -31,-14 -31,-31 0,-17 14,-31 31,-31zm34 70c15,0 28,13 28,28 0,15 -13,28 -28,28 -15,0 -28,-13 -28,-28 0,-15 13,-28 28,-28zm6 72c15,0 28,13 28,28 0,15 -13,28 -28,28 -15,0 -28,-13 -28,-28 0,-15 13,-28 28,-28zm-9 77c14,0 26,12 26,26 0,14 -12,26 -26,26 -14,0 -26,-12 -26,-26 0,-14 12,-26 26,-26zm-24 67c11,0 21,9 21,21 0,11 -9,21 -21,21 -11,0 -21,-9 -21,-21 0,-11 9,-21 21,-21zm-102 -100c14,0 25,11 25,25 0,14 -11,25 -25,25 -14,0 -25,-11 -25,-25 0,-14 11,-25 25,-25zm5 -60c15,0 27,12 27,27 0,15 -12,27 -27,27 -15,0 -27,-12 -27,-27 0,-15 12,-27 27,-27zm-1 -65c15,0 27,12 27,27 0,15 -12,27 -27,27 -15,0 -27,-12 -27,-27 0,-15 12,-27 27,-27zm-56 -110c31,0 57,25 57,57 0,31 -26,57 -57,57 -31,0 -57,-26 -57,-57 0,-31 26,-57 57,-57zm-28 127c15,0 27,12 27,27 0,15 -12,27 -27,27 -15,0 -27,-12 -27,-27 0,-15 12,-27 27,-27zm3 65c13,0 23,10 23,23 0,13 -10,23 -23,23 -13,0 -23,-10 -23,-23 0,-13 10,-23 23,-23zm3 60c11,0 20,9 20,20 0,11 -9,20 -20,20 -11,0 -20,-9 -20,-20 0,-11 9,-20 20,-20zm0 50c9,0 17,8 17,17 0,9 -8,17 -17,17 -9,0 -17,-8 -17,-17 0,-9 8,-17 17,-17zm-39 -29c11,0 20,9 20,20 0,11 -9,20 -20,20 -11,0 -20,-9 -20,-20 0,-11 9,-20 20,-20zm-27 -48c12,0 22,10 22,22 0,12 -10,22 -22,22 -12,0 -22,-10 -22,-22 0,-12 10,-22 22,-22zm-21 -65c14,0 26,12 26,26 0,14 -12,26 -26,26 -14,0 -26,-12 -26,-26 0,-14 12,-26 26,-26zm-43 -133c31,0 57,25 57,57 0,31 -25,57 -57,57 -31,0 -57,-25 -57,-57 0,-31 25,-57 57,-57zm-51 116c17,0 31,14 31,31 0,17 -14,31 -31,31 -17,0 -31,-14 -31,-31 0,-17 14,-31 31,-31zm20 79c16,0 28,13 28,28 0,16 -13,28 -28,28 -16,0 -28,-13 -28,-28 0,-16 13,-28 28,-28zm34 77c14,0 26,12 26,26 0,14 -12,26 -26,26 -14,0 -26,-12 -26,-26 0,-14 12,-26 26,-26zm45 59c13,0 24,11 24,24 0,13 -11,24 -24,24 -13,0 -24,-11 -24,-24 0,-13 11,-24 24,-24zm1111 150c14,0 25,11 25,25 0,14 -11,25 -25,25 -14,0 -25,-11 -25,-25 0,-14 11,-25 25,-25zm52 44c16,0 29,13 29,29 0,16 -13,29 -29,29 -16,0 -29,-13 -29,-29 0,-16 13,-29 29,-29zm53 52c18,0 33,15 33,33 0,18 -15,33 -33,33 -18,0 -33,-15 -33,-33 0,-18 15,-33 33,-33zm74 52c21,0 39,17 39,39 0,21 -17,39 -39,39 -21,0 -39,-17 -39,-39 0,-21 17,-39 39,-39zm208 -73c31,0 57,26 57,57 0,31 -25,57 -57,57 -31,0 -57,-26 -57,-57 0,-31 26,-57 57,-57zm-103 -32c18,0 33,15 33,33 0,18 -15,33 -33,33 -18,0 -33,-15 -33,-33 0,-18 15,-33 33,-33zm-83 -12c16,0 28,13 28,28 0,16 -13,28 -28,28 -16,0 -28,-13 -28,-28 0,-16 13,-28 28,-28zm-60 -35c13,0 24,11 24,24 0,13 -11,24 -24,24 -13,0 -24,-11 -24,-24 0,-13 11,-24 24,-24zm-45 -37c10,0 18,8 18,18 0,10 -8,18 -18,18 -10,0 -18,-8 -18,-18 0,-10 8,-18 18,-18zm183 193c23,0 42,19 42,42 0,23 -19,42 -42,42 -23,0 -42,-19 -42,-42 0,-23 19,-42 42,-42zm-129 -228c13,0 24,11 24,24 0,13 -11,24 -24,24 -13,0 -24,-11 -24,-24 0,-13 11,-24 24,-24zm51 -46c16,0 28,13 28,28 0,16 -13,28 -28,28 -16,0 -28,-13 -28,-28 0,-16 13,-28 28,-28zm44 -70c18,0 33,15 33,33 0,18 -15,33 -33,33 -18,0 -33,-15 -33,-33 0,-18 15,-33 33,-33zm12 -82c19,0 34,15 34,34 0,19 -15,34 -34,34 -19,0 -34,-15 -34,-34 0,-19 15,-34 34,-34zm-63 -115c31,0 57,25 57,57 0,31 -26,57 -57,57 -31,0 -57,-25 -57,-57 0,-31 25,-57 57,-57zm-33 120c19,0 34,15 34,34 0,19 -15,34 -34,34 -19,0 -34,-15 -34,-34 0,-19 15,-34 34,-34zm-41 70c18,0 33,15 33,33 0,18 -15,33 -33,33 -18,0 -33,-15 -33,-33 0,-18 15,-33 33,-33zm-61 53c16,0 28,13 28,28 0,16 -13,28 -28,28 -16,0 -28,-13 -28,-28 0,-16 13,-28 28,-28zm-58 33c13,0 24,11 24,24 0,13 -11,24 -24,24 -13,0 -24,-11 -24,-24 0,-13 11,-24 24,-24zm-44 25c10,0 18,8 18,18 0,10 -8,18 -18,18 -10,0 -18,-8 -18,-18 0,-10 8,-18 18,-18zm-16 -129c10,0 18,8 18,18 0,10 -8,18 -18,18 -10,0 -18,-8 -18,-18 0,-10 8,-18 18,-18zm38 -52c13,0 24,11 24,24 0,13 -11,24 -24,24 -13,0 -24,-11 -24,-24 0,-13 11,-24 24,-24zm52 -62c16,0 28,13 28,28 0,16 -13,28 -28,28 -16,0 -28,-13 -28,-28 0,-16 13,-28 28,-28zm41 -83c18,0 33,15 33,33 0,18 -15,33 -33,33 -18,0 -33,-15 -33,-33 0,-18 15,-33 33,-33zm-53 -127c31,0 57,25 57,57 0,31 -26,57 -57,57 -31,0 -57,-25 -57,-57 0,-31 26,-57 57,-57zm-55 117c18,0 33,15 33,33 0,18 -15,33 -33,33 -18,0 -33,-15 -33,-33 0,-18 15,-33 33,-33zm-28 69c13,0 23,10 23,23 0,13 -10,23 -23,23 -13,0 -23,-10 -23,-23 0,-13 10,-23 23,-23zm-33 42c11,0 20,9 20,20 0,11 -9,20 -20,20 -11,0 -20,-9 -20,-20 0,-11 9,-20 20,-20zm-36 -43c13,0 23,10 23,23 0,13 -10,23 -23,23 -13,0 -23,-10 -23,-23 0,-13 10,-23 23,-23zm-44 -46c15,0 28,12 28,28 0,15 -12,28 -28,28 -15,0 -28,-12 -28,-28 0,-15 12,-28 28,-28zm-43 -69c18,0 33,15 33,33 0,18 -15,33 -33,33 -18,0 -33,-15 -33,-33 0,-18 15,-33 33,-33zm-23 -136c31,0 57,25 57,57 0,31 -25,57 -57,57 -31,0 -57,-25 -57,-57 0,-31 26,-57 57,-57zm-80 107c18,0 33,15 33,33 0,18 -15,33 -33,33 -18,0 -33,-15 -33,-33 0,-18 15,-33 33,-33zm11 81c15,0 28,12 28,28 0,15 -12,28 -28,28 -15,0 -28,-12 -28,-28 0,-15 12,-28 28,-28zm30 61c15,0 28,12 28,28 0,15 -12,28 -28,28 -15,0 -28,-12 -28,-28 0,-15 12,-28 28,-28zm35 52c13,0 23,10 23,23 0,13 -10,23 -23,23 -13,0 -23,-10 -23,-23 0,-13 10,-23 23,-23zm28 41c11,0 20,9 20,20 0,11 -9,20 -20,20 -11,0 -20,-9 -20,-20 0,-11 9,-20 20,-20zm-67 -4c11,0 20,9 20,20 0,11 -9,20 -20,20 -11,0 -20,-9 -20,-20 0,-11 9,-20 20,-20zm-52 -18c13,0 23,10 23,23 0,13 -10,23 -23,23 -13,0 -23,-10 -23,-23 0,-13 10,-23 23,-23zm-70 -28c15,0 28,12 28,28 0,15 -12,28 -28,28 -15,0 -28,-12 -28,-28 0,-15 12,-28 28,-28zm-78 -84c31,0 57,26 57,57 0,31 -26,57 -57,57 -31,0 -57,-26 -57,-57 0,-31 26,-57 57,-57zm-18 133c15,0 28,12 28,28 0,15 -12,28 -28,28 -15,0 -28,-12 -28,-28 0,-15 12,-28 28,-28zm57 41c13,0 23,10 23,23 0,13 -10,23 -23,23 -13,0 -23,-10 -23,-23 0,-13 10,-23 23,-23zm60 18c11,0 20,9 20,20 0,11 -9,20 -20,20 -11,0 -20,-9 -20,-20 0,-11 9,-20 20,-20zm49 8c11,0 20,9 20,20 0,11 -9,20 -20,20 -11,0 -20,-9 -20,-20 0,-11 9,-20 20,-20zm-51 36c13,0 23,10 23,23 0,13 -10,23 -23,23 -13,0 -23,-10 -23,-23 0,-13 10,-23 23,-23zm-58 24c15,0 26,12 26,26 0,15 -12,26 -26,26 -15,0 -26,-12 -26,-26 0,-15 12,-26 26,-26zm-65 14c17,0 31,14 31,31 0,17 -14,31 -31,31 -17,0 -31,-14 -31,-31 0,-17 14,-31 31,-31zm-90 33c31,0 57,26 57,57 0,31 -26,57 -57,57 -31,0 -57,-26 -57,-57 0,-31 26,-57 57,-57zm94 59c19,0 34,15 34,34 0,19 -15,34 -34,34 -19,0 -34,-15 -34,-34 0,-19 15,-34 34,-34zm83 -13c16,0 28,13 28,28 0,16 -13,28 -28,28 -16,0 -28,-13 -28,-28 0,-16 13,-28 28,-28zm64 -32c16,0 28,13 28,28 0,16 -13,28 -28,28 -16,0 -28,-13 -28,-28 0,-16 13,-28 28,-28zm55 -34c13,0 24,11 24,24 0,13 -11,24 -24,24 -13,0 -24,-11 -24,-24 0,-13 11,-24 24,-24zm224 749c22,0 41,18 41,41 0,22 -18,41 -41,41 -22,0 -41,-18 -41,-41 0,-22 18,-41 41,-41zm97 75c26,0 46,21 46,46 0,26 -21,46 -46,46 -26,0 -46,-21 -46,-46 0,-26 21,-46 46,-46zm65 97c31,0 57,25 57,57 0,31 -26,57 -57,57 -31,0 -57,-26 -57,-57 0,-31 26,-57 57,-57zm139 96c31,0 57,25 57,57 0,31 -25,57 -57,57 -31,0 -57,-25 -57,-57 0,-31 25,-57 57,-57zm49 -161c31,0 57,26 57,57 0,31 -26,57 -57,57 -31,0 -57,-26 -57,-57 0,-31 26,-57 57,-57zm-104 -111c26,0 46,21 46,46 0,26 -21,46 -46,46 -26,0 -46,-21 -46,-46 0,-26 21,-46 46,-46zm-89 -102c26,0 46,21 46,46 0,26 -21,46 -46,46 -26,0 -46,-21 -46,-46 0,-26 21,-46 46,-46zm130 -28c26,0 46,21 46,46 0,26 -21,46 -46,46 -26,0 -46,-21 -46,-46 0,-26 21,-46 46,-46zm125 -33c31,0 57,25 57,57 0,31 -26,57 -57,57 -31,0 -57,-25 -57,-57 0,-31 26,-57 57,-57zm78 -96c26,0 46,21 46,46 0,26 -21,46 -46,46 -26,0 -46,-21 -46,-46 0,-26 21,-46 46,-46zm-118 -63c31,0 57,26 57,57 0,31 -26,57 -57,57 -31,0 -57,-26 -57,-57 0,-31 26,-57 57,-57zm-133 14c26,0 46,21 46,46 0,26 -21,46 -46,46 -26,0 -46,-21 -46,-46 0,-26 21,-46 46,-46zm-102 36c20,0 37,17 37,37 0,20 -17,37 -37,37 -20,0 -37,-17 -37,-37 0,-20 17,-37 37,-37zm-79 42c16,0 30,13 30,30 0,16 -13,30 -30,30 -16,0 -30,-13 -30,-30 0,-16 13,-30 30,-30zm-85 50c15,0 27,12 27,27 0,15 -12,27 -27,27 -15,0 -27,-12 -27,-27 0,-15 12,-27 27,-27zm21 -62c15,0 27,12 27,27 0,15 -12,27 -27,27 -15,0 -27,-12 -27,-27 0,-15 12,-27 27,-27zm66 -61c15,0 27,12 27,27 0,15 -12,27 -27,27 -15,0 -27,-12 -27,-27 0,-15 12,-27 27,-27zm65 -53c17,0 31,14 31,31 0,17 -14,31 -31,31 -17,0 -31,-14 -31,-31 0,-17 14,-31 31,-31zm11 -104c26,0 46,21 46,46 0,26 -21,46 -46,46 -26,0 -46,-21 -46,-46 0,-26 21,-46 46,-46zm-93 45c17,0 31,14 31,31 0,17 -14,31 -31,31 -17,0 -31,-14 -31,-31 0,-17 14,-31 31,-31zm-61 48c15,0 27,12 27,27 0,15 -12,27 -27,27 -15,0 -27,-12 -27,-27 0,-15 12,-27 27,-27zm-57 43c14,0 26,12 26,26 0,14 -12,26 -26,26 -14,0 -26,-12 -26,-26 0,-14 12,-26 26,-26zm-40 -39c11,0 19,9 19,19 0,11 -9,19 -19,19 -11,0 -19,-9 -19,-19 0,-11 9,-19 19,-19zm22 -54c12,0 22,10 22,22 0,12 -10,22 -22,22 -12,0 -22,-10 -22,-22 0,-12 10,-22 22,-22zm-37 -38c12,0 22,10 22,22 0,12 -10,22 -22,22 -12,0 -22,-10 -22,-22 0,-12 10,-22 22,-22zm-46 23c12,0 22,10 22,22 0,12 -10,22 -22,22 -12,0 -22,-10 -22,-22 0,-12 10,-22 22,-22zm-30 59c14,0 25,11 25,25 0,14 -11,25 -25,25 -14,0 -25,-11 -25,-25 0,-14 11,-25 25,-25zm7 60c20,0 37,17 37,37 0,20 -17,37 -37,37 -20,0 -37,-17 -37,-37 0,-20 17,-37 37,-37zm34 77c20,0 37,17 37,37 0,20 -17,37 -37,37 -20,0 -37,-17 -37,-37 0,-20 17,-37 37,-37zm-9 -532c11,0 20,9 20,20 0,11 -9,20 -20,20 -11,0 -20,-9 -20,-20 0,-11 9,-20 20,-20z"/>
   <path class="fil1" d="M5916 3572c-1,0 -1,1 -2,1l2 -1zm-642 1168c-28,-265 -568,-189 246,-563 94,-43 153,26 204,52 52,26 137,-14 162,-26 62,-29 325,313 321,299 -25,-86 -247,-294 -238,-349 10,-61 363,-94 363,-94 -171,-19 -254,-24 -439,58 -76,34 -103,30 -103,30 0,0 38,-44 46,-83 12,-58 182,-183 168,-179 -58,15 -184,114 -184,114 -27,-19 -70,-69 -70,-104 0,-32 31,-52 31,-52 -122,31 17,161 12,198 -4,28 -31,110 -69,60 -109,-139 -194,94 -194,-92 0,-34 -14,-87 14,-155 28,-67 180,-75 208,-83 28,-8 77,-11 120,-72 43,-61 55,-76 88,-97 33,-21 40,-10 66,8 56,38 90,118 203,138 51,9 108,-28 48,-21 -94,11 -183,-88 -233,-153 0,0 58,-25 77,-43 106,-97 80,-180 80,-179 0,0 -6,45 -20,71 -39,71 -80,92 -163,118l-102 32c16,-10 -1,-139 -25,-165 -19,-22 168,-131 112,-221 -2,-4 25,80 -118,163 0,0 8,-9 -99,-90 -87,-66 -55,-145 -62,-138 -42,38 -1,123 52,196 22,30 27,83 27,83 0,0 -33,-11 -148,-21 -72,-6 -146,-49 -146,-46 2,58 173,71 190,83 19,14 -107,91 -157,116 -50,25 -95,25 -95,25 165,67 334,-289 375,15 8,58 -74,99 -184,111 -110,12 -190,97 -194,115 -9,41 -63,-89 -185,-164 -29,-18 -64,-42 -66,-91 -2,-50 19,-83 33,-106 14,-23 138,-205 149,-279 8,-52 -36,-47 -30,-27 21,73 -120,289 -120,257 -1,-155 -15,-206 -78,-257 -1,-1 24,33 36,60 29,62 28,151 12,203 -12,41 -56,107 -67,99 -11,-8 -28,-16 -52,-31 -25,-15 -68,11 -82,-11 -2,-3 -1,-17 2,-36 2,-14 10,-222 -4,-175 -4,14 -2,116 -13,170 -4,22 -13,34 -31,27 -48,-19 -65,-50 -87,-93 -22,-43 -24,-92 -36,-96 -20,-6 29,204 122,244 15,6 57,-24 138,69 25,28 91,125 86,126 -73,15 -120,87 -185,118 -19,9 -90,9 -158,-28 -63,-34 -153,-409 -170,-390 -2,2 66,236 51,216 -45,-59 -221,-58 -200,-51 43,16 125,14 164,51 42,40 86,109 66,125 -87,67 -114,72 -149,187 0,0 5,-11 28,-51 24,-42 124,-135 142,-93 18,42 156,115 156,115 0,0 -28,34 -54,51 -27,17 -77,21 -134,29 -42,6 -82,9 -92,17 -38,31 184,-21 173,15 -10,34 -68,154 -49,127 49,-71 131,-140 183,-191 117,-114 378,-234 423,9 1,4 7,66 -31,77 -221,67 -1050,639 -828,914 41,-299 539,-439 767,-196z"/>
  </g>
 </g>
</svg>
