<?xml version="1.0" encoding="UTF-8"?>
<!DOCTYPE svg PUBLIC "-//W3C//DTD SVG 1.1//EN" "http://www.w3.org/Graphics/SVG/1.1/DTD/svg11.dtd">
<!-- Creator: CorelDRAW X6 -->
<svg xmlns="http://www.w3.org/2000/svg" xml:space="preserve" width="11in" height="8.5in" version="1.1" style="shape-rendering:geometricPrecision; text-rendering:geometricPrecision; image-rendering:optimizeQuality; fill-rule:evenodd; clip-rule:evenodd"
viewBox="0 0 11000 8500"
 xmlns:xlink="http://www.w3.org/1999/xlink">
 <defs>
  <style type="text/css">
   <![CDATA[
    .fil0 {fill:#0D0D0D}
    .fil1 {fill:#99CC33}
    .fil2 {fill:white}
   ]]>
  </style>
 </defs>
 <g id="Layer_x0020_1">
  <metadata id="CorelCorpID_0Corel-Layer"/>
  <rect class="fil0" y="2548" width="11000" height="3404"/>
  <g id="_697573088">
   <g>
    <path class="fil1" d="M4758 5088c0,111 77,214 193,214 117,0 195,-102 195,-214 0,-111 -82,-204 -195,-204 -113,0 -193,93 -193,204z"/>
    <path class="fil1" d="M5763 4248c18,0 32,14 32,32 0,18 -14,32 -32,32 -18,0 -32,-14 -32,-32 0,-18 14,-32 32,-32zm-1024 -885c24,0 43,19 43,43 0,24 -19,43 -43,43 -24,0 -43,-19 -43,-43 0,-24 19,-43 43,-43zm-88 -108c35,0 63,28 63,63 0,35 -28,63 -63,63 -35,0 -63,-28 -63,-63 0,-35 28,-63 63,-63zm291 253c11,0 19,9 19,19 0,11 -9,19 -19,19 -11,0 -19,-9 -19,-19 0,-11 9,-19 19,-19zm-179 -39c19,0 35,16 35,35 0,19 -16,35 -35,35 -19,0 -35,-16 -35,-35 0,-19 16,-35 35,-35zm24 96c15,0 28,12 28,28 0,15 -12,28 -28,28 -15,0 -28,-12 -28,-28 0,-15 12,-28 28,-28zm19 68c12,0 23,10 23,23 0,12 -10,23 -23,23 -12,0 -23,-10 -23,-23 0,-12 10,-23 23,-23zm26 58c12,0 23,10 23,23 0,12 -10,23 -23,23 -12,0 -23,-10 -23,-23 0,-12 10,-23 23,-23zm-194 -281c22,0 41,18 41,41 0,22 -18,41 -41,41 -22,0 -41,-18 -41,-41 0,-22 18,-41 41,-41zm37 106c13,0 24,11 24,24 0,13 -11,24 -24,24 -13,0 -24,-11 -24,-24 0,-13 11,-24 24,-24zm-71 -18c16,0 29,13 29,29 0,16 -13,29 -29,29 -16,0 -29,-13 -29,-29 0,-16 13,-29 29,-29zm-75 -8c16,0 29,13 29,29 0,16 -13,29 -29,29 -16,0 -29,-13 -29,-29 0,-16 13,-29 29,-29zm-73 44c35,0 63,28 63,63 0,35 -28,63 -63,63 -35,0 -63,-28 -63,-63 0,-35 28,-63 63,-63zm100 51c18,0 33,15 33,33 0,18 -15,33 -33,33 -18,0 -33,-15 -33,-33 0,-18 15,-33 33,-33zm73 13c16,0 29,13 29,29 0,16 -13,29 -29,29 -16,0 -29,-13 -29,-29 0,-16 13,-29 29,-29zm57 47c15,0 27,12 27,27 0,15 -12,27 -27,27 -15,0 -27,-12 -27,-27 0,-15 12,-27 27,-27zm41 50c10,0 18,8 18,18 0,10 -8,18 -18,18 -10,0 -18,-8 -18,-18 0,-10 8,-18 18,-18zm-55 25c15,0 27,12 27,27 0,15 -12,27 -27,27 -15,0 -27,-12 -27,-27 0,-15 12,-27 27,-27zm-58 42c18,0 33,15 33,33 0,18 -15,33 -33,33 -18,0 -33,-15 -33,-33 0,-18 15,-33 33,-33zm-41 66c21,0 39,17 39,39 0,21 -17,39 -39,39 -21,0 -39,-17 -39,-39 0,-21 17,-39 39,-39zm0 96c35,0 63,28 63,63 0,35 -28,63 -63,63 -35,0 -63,-28 -63,-63 0,-35 28,-63 63,-63zm95 -47c21,0 39,17 39,39 0,21 -17,39 -39,39 -21,0 -39,-17 -39,-39 0,-21 17,-39 39,-39zm42 -64c18,0 33,15 33,33 0,18 -15,33 -33,33 -18,0 -33,-15 -33,-33 0,-18 15,-33 33,-33zm42 -36c9,0 16,7 16,16 0,9 -7,16 -16,16 -9,0 -16,-7 -16,-16 0,-9 7,-16 16,-16zm2 109c18,0 33,15 33,33 0,18 -15,33 -33,33 -18,0 -33,-15 -33,-33 0,-18 15,-33 33,-33zm71 6c11,0 20,9 20,20 0,11 -9,20 -20,20 -11,0 -20,-9 -20,-20 0,-11 9,-20 20,-20zm58 -6c8,0 15,7 15,15 0,8 -7,15 -15,15 -8,0 -15,-7 -15,-15 0,-8 7,-15 15,-15zm-206 121c18,0 33,15 33,33 0,18 -15,33 -33,33 -18,0 -33,-15 -33,-33 0,-18 15,-33 33,-33zm61 -9c11,0 20,9 20,20 0,11 -9,20 -20,20 -11,0 -20,-9 -20,-20 0,-11 9,-20 20,-20zm52 -5c8,0 15,7 15,15 0,8 -7,15 -15,15 -8,0 -15,-7 -15,-15 0,-8 7,-15 15,-15zm-22 39c11,0 20,9 20,20 0,11 -9,20 -20,20 -11,0 -20,-9 -20,-20 0,-11 9,-20 20,-20zm-44 42c18,0 33,15 33,33 0,18 -15,33 -33,33 -18,0 -33,-15 -33,-33 0,-18 15,-33 33,-33zm37 65c35,0 63,28 63,63 0,35 -28,63 -63,63 -35,0 -63,-28 -63,-63 0,-35 28,-63 63,-63zm73 -59c18,0 33,15 33,33 0,18 -15,33 -33,33 -18,0 -33,-15 -33,-33 0,-18 15,-33 33,-33zm40 -44c13,0 23,10 23,23 0,13 -10,23 -23,23 -13,0 -23,-10 -23,-23 0,-13 10,-23 23,-23zm40 -40c11,0 20,9 20,20 0,11 -9,20 -20,20 -11,0 -20,-9 -20,-20 0,-11 9,-20 20,-20zm28 -31c8,0 14,6 14,14 0,8 -6,14 -14,14 -8,0 -14,-6 -14,-14 0,-8 6,-14 14,-14zm29 -22c6,0 11,5 11,11 0,6 -5,11 -11,11 -6,0 -11,-5 -11,-11 0,-6 5,-11 11,-11zm61 -527c12,0 22,10 22,22 0,12 -10,22 -22,22 -12,0 -22,-10 -22,-22 0,-12 10,-22 22,-22zm232 31c17,0 31,14 31,31 0,17 -14,31 -31,31 -17,0 -31,-14 -31,-31 0,-17 14,-31 31,-31zm49 -81c19,0 35,16 35,35 0,19 -16,35 -35,35 -19,0 -35,-16 -35,-35 0,-19 16,-35 35,-35zm53 -84c20,0 36,16 36,36 0,20 -16,36 -36,36 -20,0 -36,-16 -36,-36 0,-20 16,-36 36,-36zm42 -93c21,0 38,17 38,38 0,21 -17,38 -38,38 -21,0 -38,-17 -38,-38 0,-21 17,-38 38,-38zm-51 -194c31,0 56,25 56,56 0,31 -25,56 -56,56 -31,0 -56,-25 -56,-56 0,-31 25,-56 56,-56zm69 103c21,0 38,17 38,38 0,21 -17,38 -38,38 -21,0 -38,-17 -38,-38 0,-21 17,-38 38,-38zm-113 18c16,0 29,13 29,29 0,16 -13,29 -29,29 -16,0 -29,-13 -29,-29 0,-16 13,-29 29,-29zm-8 72c16,0 29,13 29,29 0,16 -13,29 -29,29 -16,0 -29,-13 -29,-29 0,-16 13,-29 29,-29zm-31 76c13,0 24,11 24,24 0,13 -11,24 -24,24 -13,0 -24,-11 -24,-24 0,-13 11,-24 24,-24zm-28 -63c13,0 24,11 24,24 0,13 -11,24 -24,24 -13,0 -24,-11 -24,-24 0,-13 11,-24 24,-24zm-31 -73c16,0 28,13 28,28 0,16 -13,28 -28,28 -16,0 -28,-13 -28,-28 0,-16 13,-28 28,-28zm-86 -95c31,0 56,25 56,56 0,31 -25,56 -56,56 -31,0 -56,-25 -56,-56 0,-31 25,-56 56,-56zm5 128c17,0 31,14 31,31 0,17 -14,31 -31,31 -17,0 -31,-14 -31,-31 0,-17 14,-31 31,-31zm33 69c15,0 28,12 28,28 0,15 -12,28 -28,28 -15,0 -28,-12 -28,-28 0,-15 12,-28 28,-28zm6 71c15,0 28,12 28,28 0,15 -12,28 -28,28 -15,0 -28,-12 -28,-28 0,-15 12,-28 28,-28zm-9 76c14,0 26,11 26,26 0,14 -11,26 -26,26 -14,0 -26,-11 -26,-26 0,-14 11,-26 26,-26zm-23 66c11,0 20,9 20,20 0,11 -9,20 -20,20 -11,0 -20,-9 -20,-20 0,-11 9,-20 20,-20zm-100 -98c14,0 25,11 25,25 0,14 -11,25 -25,25 -14,0 -25,-11 -25,-25 0,-14 11,-25 25,-25zm5 -59c15,0 26,12 26,26 0,15 -12,26 -26,26 -15,0 -26,-12 -26,-26 0,-15 12,-26 26,-26zm-1 -64c15,0 26,12 26,26 0,15 -12,26 -26,26 -15,0 -26,-12 -26,-26 0,-15 12,-26 26,-26zm-55 -109c31,0 56,25 56,56 0,31 -25,56 -56,56 -31,0 -56,-25 -56,-56 0,-31 25,-56 56,-56zm-27 125c15,0 26,12 26,26 0,15 -12,26 -26,26 -15,0 -26,-12 -26,-26 0,-15 12,-26 26,-26zm3 64c12,0 22,10 22,22 0,12 -10,22 -22,22 -12,0 -22,-10 -22,-22 0,-12 10,-22 22,-22zm3 59c11,0 19,9 19,19 0,11 -9,19 -19,19 -11,0 -19,-9 -19,-19 0,-11 9,-19 19,-19zm0 49c9,0 17,8 17,17 0,9 -8,17 -17,17 -9,0 -17,-8 -17,-17 0,-9 8,-17 17,-17zm-38 -28c11,0 19,9 19,19 0,11 -9,19 -19,19 -11,0 -19,-9 -19,-19 0,-11 9,-19 19,-19zm-27 -47c12,0 22,10 22,22 0,12 -10,22 -22,22 -12,0 -22,-10 -22,-22 0,-12 10,-22 22,-22zm-21 -64c14,0 25,11 25,25 0,14 -11,25 -25,25 -14,0 -25,-11 -25,-25 0,-14 11,-25 25,-25zm-42 -131c31,0 56,25 56,56 0,31 -25,56 -56,56 -31,0 -56,-25 -56,-56 0,-31 25,-56 56,-56zm-50 114c17,0 31,14 31,30 0,17 -14,31 -31,31 -17,0 -31,-14 -31,-31 0,-17 14,-30 31,-30zm20 78c15,0 28,13 28,28 0,15 -13,28 -28,28 -15,0 -28,-13 -28,-28 0,-15 13,-28 28,-28zm34 75c14,0 25,11 25,25 0,14 -11,25 -25,25 -14,0 -25,-11 -25,-25 0,-14 11,-25 25,-25zm45 58c13,0 23,10 23,23 0,13 -10,23 -23,23 -13,0 -23,-10 -23,-23 0,-13 10,-23 23,-23zm1093 148c14,0 25,11 25,25 0,14 -11,25 -25,25 -14,0 -25,-11 -25,-25 0,-14 11,-25 25,-25zm51 43c16,0 28,13 28,28 0,16 -13,28 -28,28 -16,0 -28,-13 -28,-28 0,-16 13,-28 28,-28zm52 51c18,0 33,15 33,33 0,18 -15,33 -33,33 -18,0 -33,-15 -33,-33 0,-18 15,-33 33,-33zm72 51c21,0 38,17 38,38 0,21 -17,38 -38,38 -21,0 -38,-17 -38,-38 0,-21 17,-38 38,-38zm205 -72c31,0 56,25 56,56 0,31 -25,56 -56,56 -31,0 -56,-25 -56,-56 0,-31 25,-56 56,-56zm-101 -31c18,0 32,14 32,32 0,18 -14,32 -32,32 -18,0 -32,-14 -32,-32 0,-18 14,-32 32,-32zm-82 -11c15,0 28,12 28,28 0,15 -12,28 -28,28 -15,0 -28,-12 -28,-28 0,-15 12,-28 28,-28zm-60 -34c13,0 23,10 23,23 0,13 -10,23 -23,23 -13,0 -23,-10 -23,-23 0,-13 10,-23 23,-23zm-44 -36c10,0 18,8 18,18 0,10 -8,18 -18,18 -10,0 -18,-8 -18,-18 0,-10 8,-18 18,-18zm180 190c23,0 41,18 41,41 0,23 -18,41 -41,41 -23,0 -41,-18 -41,-41 0,-23 18,-41 41,-41zm-127 -224c13,0 23,10 23,23 0,13 -10,23 -23,23 -13,0 -23,-10 -23,-23 0,-13 10,-23 23,-23zm50 -45c15,0 28,12 28,28 0,15 -12,28 -28,28 -15,0 -28,-12 -28,-28 0,-15 12,-28 28,-28zm43 -69c18,0 32,14 32,32 0,18 -14,32 -32,32 -18,0 -32,-14 -32,-32 0,-18 14,-32 32,-32zm12 -80c18,0 33,15 33,33 0,18 -15,33 -33,33 -18,0 -33,-15 -33,-33 0,-18 15,-33 33,-33zm-62 -113c31,0 56,25 56,56 0,31 -25,56 -56,56 -31,0 -56,-25 -56,-56 0,-31 25,-56 56,-56zm-32 118c18,0 33,15 33,33 0,18 -15,33 -33,33 -18,0 -33,-15 -33,-33 0,-18 15,-33 33,-33zm-41 69c18,0 32,14 32,32 0,18 -14,32 -32,32 -18,0 -32,-14 -32,-32 0,-18 14,-32 32,-32zm-60 52c15,0 28,12 28,28 0,15 -12,28 -28,28 -15,0 -28,-12 -28,-28 0,-15 12,-28 28,-28zm-57 32c13,0 23,10 23,23 0,13 -10,23 -23,23 -13,0 -23,-10 -23,-23 0,-13 10,-23 23,-23zm-43 25c10,0 18,8 18,18 0,10 -8,18 -18,18 -10,0 -18,-8 -18,-18 0,-10 8,-18 18,-18zm-16 -127c10,0 18,8 18,18 0,10 -8,18 -18,18 -10,0 -18,-8 -18,-18 0,-10 8,-18 18,-18zm38 -51c13,0 23,10 23,23 0,13 -10,23 -23,23 -13,0 -23,-10 -23,-23 0,-13 10,-23 23,-23zm52 -61c15,0 28,12 28,28 0,15 -12,28 -28,28 -15,0 -28,-12 -28,-28 0,-15 12,-28 28,-28zm40 -82c18,0 32,14 32,32 0,18 -14,32 -32,32 -18,0 -32,-14 -32,-32 0,-18 14,-32 32,-32zm-52 -125c31,0 56,25 56,56 0,31 -25,56 -56,56 -31,0 -56,-25 -56,-56 0,-31 25,-56 56,-56zm-54 115c18,0 32,14 32,32 0,18 -14,32 -32,32 -18,0 -32,-14 -32,-32 0,-18 14,-32 32,-32zm-28 68c12,0 22,10 22,22 0,12 -10,22 -22,22 -12,0 -22,-10 -22,-22 0,-12 10,-22 22,-22zm-33 42c11,0 19,9 19,19 0,11 -9,19 -19,19 -11,0 -19,-9 -19,-19 0,-11 9,-19 19,-19zm-35 -42c12,0 22,10 22,22 0,12 -10,22 -22,22 -12,0 -22,-10 -22,-22 0,-12 10,-22 22,-22zm-43 -45c15,0 27,12 27,27 0,15 -12,27 -27,27 -15,0 -27,-12 -27,-27 0,-15 12,-27 27,-27zm-42 -68c18,0 33,15 33,33 0,18 -15,33 -33,33 -18,0 -33,-15 -33,-33 0,-18 15,-33 33,-33zm-23 -134c31,0 56,25 56,56 0,31 -25,56 -56,56 -31,0 -56,-25 -56,-56 0,-31 25,-56 56,-56zm-79 105c18,0 33,15 33,33 0,18 -15,33 -33,33 -18,0 -33,-15 -33,-33 0,-18 15,-33 33,-33zm11 80c15,0 27,12 27,27 0,15 -12,27 -27,27 -15,0 -27,-12 -27,-27 0,-15 12,-27 27,-27zm29 60c15,0 27,12 27,27 0,15 -12,27 -27,27 -15,0 -27,-12 -27,-27 0,-15 12,-27 27,-27zm35 51c12,0 22,10 22,22 0,12 -10,22 -22,22 -12,0 -22,-10 -22,-22 0,-12 10,-22 22,-22zm28 41c11,0 19,9 19,19 0,11 -9,19 -19,19 -11,0 -19,-9 -19,-19 0,-11 9,-19 19,-19zm-66 -4c11,0 19,9 19,19 0,11 -9,19 -19,19 -11,0 -19,-9 -19,-19 0,-11 9,-19 19,-19zm-51 -18c12,0 22,10 22,22 0,12 -10,22 -22,22 -12,0 -22,-10 -22,-22 0,-12 10,-22 22,-22zm-69 -28c15,0 27,12 27,27 0,15 -12,27 -27,27 -15,0 -27,-12 -27,-27 0,-15 12,-27 27,-27zm-77 -83c31,0 56,25 56,56 0,31 -25,56 -56,56 -31,0 -56,-25 -56,-56 0,-31 25,-56 56,-56zm-18 131c15,0 27,12 27,27 0,15 -12,27 -27,27 -15,0 -27,-12 -27,-27 0,-15 12,-27 27,-27zm56 40c12,0 22,10 22,22 0,12 -10,22 -22,22 -12,0 -22,-10 -22,-22 0,-12 10,-22 22,-22zm59 18c11,0 19,9 19,19 0,11 -9,19 -19,19 -11,0 -19,-9 -19,-19 0,-11 9,-19 19,-19zm48 8c11,0 19,9 19,19 0,11 -9,19 -19,19 -11,0 -19,-9 -19,-19 0,-11 9,-19 19,-19zm-51 35c12,0 22,10 22,22 0,12 -10,22 -22,22 -12,0 -22,-10 -22,-22 0,-12 10,-22 22,-22zm-57 24c14,0 26,12 26,26 0,14 -12,26 -26,26 -14,0 -26,-12 -26,-26 0,-14 12,-26 26,-26zm-64 14c17,0 30,14 30,30 0,17 -14,30 -30,30 -17,0 -30,-14 -30,-30 0,-17 14,-30 30,-30zm-89 32c31,0 56,25 56,56 0,31 -25,56 -56,56 -31,0 -56,-25 -56,-56 0,-31 25,-56 56,-56zm93 58c18,0 33,15 33,33 0,18 -15,33 -33,33 -18,0 -33,-15 -33,-33 0,-18 15,-33 33,-33zm81 -13c15,0 28,12 28,28 0,15 -12,28 -28,28 -15,0 -28,-12 -28,-28 0,-15 12,-28 28,-28zm63 -31c15,0 28,12 28,28 0,15 -12,28 -28,28 -15,0 -28,-12 -28,-28 0,-15 12,-28 28,-28zm54 -33c13,0 24,11 24,24 0,13 -11,24 -24,24 -13,0 -24,-11 -24,-24 0,-13 11,-24 24,-24zm221 737c22,0 40,18 40,40 0,22 -18,40 -40,40 -22,0 -40,-18 -40,-40 0,-22 18,-40 40,-40zm96 74c25,0 45,20 45,45 0,25 -20,45 -45,45 -25,0 -45,-20 -45,-45 0,-25 20,-45 45,-45zm64 95c31,0 56,25 56,56 0,31 -25,56 -56,56 -31,0 -56,-25 -56,-56 0,-31 25,-56 56,-56zm137 94c31,0 56,25 56,56 0,31 -25,56 -56,56 -31,0 -56,-25 -56,-56 0,-31 25,-56 56,-56zm48 -158c31,0 56,25 56,56 0,31 -25,56 -56,56 -31,0 -56,-25 -56,-56 0,-31 25,-56 56,-56zm-102 -109c25,0 45,20 45,45 0,25 -20,45 -45,45 -25,0 -45,-20 -45,-45 0,-25 20,-45 45,-45zm-88 -101c25,0 45,20 45,45 0,25 -20,45 -45,45 -25,0 -45,-20 -45,-45 0,-25 20,-45 45,-45zm128 -27c25,0 45,20 45,45 0,25 -20,45 -45,45 -25,0 -45,-20 -45,-45 0,-25 20,-45 45,-45zm123 -33c31,0 56,25 56,56 0,31 -25,56 -56,56 -31,0 -56,-25 -56,-56 0,-31 25,-56 56,-56zm77 -95c25,0 45,20 45,45 0,25 -20,45 -45,45 -25,0 -45,-20 -45,-45 0,-25 20,-45 45,-45zm-116 -62c31,0 56,25 56,56 0,31 -25,56 -56,56 -31,0 -56,-25 -56,-56 0,-31 25,-56 56,-56zm-131 14c25,0 45,20 45,45 0,25 -20,45 -45,45 -25,0 -45,-20 -45,-45 0,-25 20,-45 45,-45zm-100 35c20,0 36,16 36,36 0,20 -16,36 -36,36 -20,0 -36,-16 -36,-36 0,-20 16,-36 36,-36zm-77 41c16,0 29,13 29,29 0,16 -13,29 -29,29 -16,0 -29,-13 -29,-29 0,-16 13,-29 29,-29zm-83 49c15,0 27,12 27,27 0,15 -12,27 -27,27 -15,0 -27,-12 -27,-27 0,-15 12,-27 27,-27zm20 -61c15,0 27,12 27,27 0,15 -12,27 -27,27 -15,0 -27,-12 -27,-27 0,-15 12,-27 27,-27zm65 -60c15,0 27,12 27,27 0,15 -12,27 -27,27 -15,0 -27,-12 -27,-27 0,-15 12,-27 27,-27zm64 -52c17,0 31,14 31,31 0,17 -14,31 -31,31 -17,0 -31,-14 -31,-31 0,-17 14,-31 31,-31zm11 -103c25,0 45,20 45,45 0,25 -20,45 -45,45 -25,0 -45,-20 -45,-45 0,-25 20,-45 45,-45zm-92 44c17,0 31,14 31,31 0,17 -14,31 -31,31 -17,0 -31,-14 -31,-31 0,-17 14,-31 31,-31zm-60 47c15,0 27,12 27,27 0,15 -12,27 -27,27 -15,0 -27,-12 -27,-27 0,-15 12,-27 27,-27zm-56 42c14,0 26,12 26,26 0,14 -12,26 -26,26 -14,0 -26,-12 -26,-26 0,-14 12,-26 26,-26zm-40 -38c10,0 19,8 19,19 0,10 -8,19 -19,19 -10,0 -19,-8 -19,-19 0,-10 8,-19 19,-19zm22 -53c12,0 21,10 21,21 0,12 -10,21 -21,21 -12,0 -21,-10 -21,-21 0,-12 10,-21 21,-21zm-36 -37c12,0 21,10 21,21 0,12 -10,21 -21,21 -12,0 -21,-10 -21,-21 0,-12 10,-21 21,-21zm-45 23c12,0 21,10 21,21 0,12 -10,21 -21,21 -12,0 -21,-10 -21,-21 0,-12 10,-21 21,-21zm-29 59c14,0 25,11 25,25 0,14 -11,25 -25,25 -14,0 -25,-11 -25,-25 0,-14 11,-25 25,-25zm7 59c20,0 36,16 36,36 0,20 -16,36 -36,36 -20,0 -36,-16 -36,-36 0,-20 16,-36 36,-36zm33 76c20,0 36,16 36,36 0,20 -16,36 -36,36 -20,0 -36,-16 -36,-36 0,-20 16,-36 36,-36zm-9 -523c11,0 20,9 20,20 0,11 -9,20 -20,20 -11,0 -20,-9 -20,-20 0,-11 9,-20 20,-20z"/>
   </g>
   <path class="fil2" d="M5909 3583c-1,0 -1,1 -2,1l2 -1zm-1369 1505c0,236 179,420 411,420 232,0 412,-184 412,-420 0,-230 -181,-409 -412,-409 -232,0 -411,178 -411,409zm118 0c0,-171 131,-303 293,-303 162,0 294,132 294,303 0,177 -132,313 -294,313 -162,0 -293,-136 -293,-313zm791 245c0,115 97,175 195,175 137,0 183,-114 183,-114l2 0c0,0 -2,15 -2,34 0,41 20,66 72,66l103 0 0 -94 -47 0c-16,0 -25,-8 -25,-25l0 -244c0,-127 -50,-225 -236,-225 -56,0 -199,14 -199,108l0 57 103 0 0 -33c0,-37 67,-44 94,-44 90,0 127,36 127,137l0 6 -25 0c-97,0 -346,11 -346,196zm111 -6c0,-106 150,-110 233,-110l28 0 0 19c0,85 -60,183 -153,183 -73,0 -108,-45 -108,-92zm556 167l110 0 0 -270 43 0c18,0 44,2 57,24l104 193c25,44 42,53 95,53l79 0 0 -94 -35 0c-28,0 -40,-5 -49,-23l-85 -156c-19,-36 -39,-43 -39,-43l0 -2c0,0 17,-8 43,-43l156 -213 -126 0 -133 186c-15,19 -40,25 -60,25l-51 0 0 -372c0,-51 -22,-66 -73,-66l-109 0 0 94 47 0c16,0 25,8 25,25l0 682zm-840 -762c-28,-261 -559,-186 242,-554 93,-43 150,25 201,51 51,25 135,-14 160,-25 61,-28 320,308 316,294 -24,-85 -243,-289 -234,-343 10,-60 358,-93 358,-93 -168,-18 -250,-24 -432,58 -75,34 -101,29 -101,29 0,0 37,-43 45,-82 11,-57 179,-180 165,-176 -58,15 -181,112 -181,112 -27,-19 -69,-68 -69,-103 0,-31 30,-51 30,-51 -120,30 17,159 12,195 -4,27 -30,108 -68,59 -107,-137 -191,93 -191,-91 0,-33 -14,-86 14,-152 27,-66 177,-74 205,-82 27,-8 76,-11 118,-71 42,-60 55,-75 87,-95 32,-20 39,-10 65,8 56,37 89,116 200,135 50,9 106,-27 47,-20 -92,11 -181,-86 -229,-151 0,0 57,-24 76,-42 105,-95 79,-177 79,-176 0,0 -6,44 -20,70 -38,70 -79,91 -161,116l-101 32c16,-9 -1,-136 -24,-162 -19,-21 165,-129 110,-217 -2,-4 25,78 -116,161 0,0 8,-9 -97,-89 -86,-65 -54,-143 -61,-136 -41,37 -1,121 52,193 21,29 26,82 26,82 0,0 -32,-11 -145,-20 -71,-6 -144,-48 -144,-45 2,57 170,70 187,82 19,13 -105,90 -154,114 -49,24 -94,24 -94,24 162,66 329,-285 369,15 8,57 -73,97 -181,109 -108,12 -187,95 -191,113 -9,40 -62,-87 -182,-162 -28,-18 -63,-41 -65,-90 -2,-49 19,-82 33,-104 14,-23 136,-201 147,-275 8,-51 -35,-47 -29,-26 21,72 -118,285 -118,253 -1,-152 -15,-203 -77,-253 -1,-1 23,32 36,59 29,61 27,148 12,200 -12,40 -56,105 -66,97 -11,-8 -27,-16 -52,-30 -24,-15 -67,10 -81,-11 -2,-3 -1,-16 2,-35 2,-14 10,-218 -4,-172 -4,14 -2,114 -12,168 -4,21 -13,34 -31,26 -47,-19 -64,-50 -85,-91 -22,-43 -23,-90 -36,-94 -20,-6 28,201 120,240 14,6 56,-24 135,68 24,28 90,123 85,124 -72,14 -118,86 -182,116 -19,9 -89,9 -156,-27 -62,-33 -150,-403 -167,-384 -2,2 65,232 50,212 -44,-58 -217,-57 -197,-50 43,16 123,13 162,50 41,39 85,107 64,123 -85,66 -112,71 -146,184 0,0 5,-11 27,-50 24,-42 122,-133 139,-92 18,41 154,113 154,113 0,0 -27,33 -54,50 -26,17 -76,20 -132,28 -42,6 -81,8 -91,17 -37,30 181,-21 170,14 -10,33 -67,152 -48,125 48,-69 128,-137 180,-188 115,-112 372,-231 416,9 1,4 7,65 -30,76 -217,66 -1033,629 -814,900 41,-294 531,-432 755,-193z"/>
  </g>
 </g>
</svg>
